<svg width="18" height="18" viewBox="0 0 18 18" fill="none" xmlns="http://www.w3.org/2000/svg">
<path d="M16.4882 8.06484L15.9679 2.56992C15.9415 2.28516 15.7148 2.06016 15.43 2.03203L9.9351 1.51172H9.92807C9.87182 1.51172 9.82787 1.5293 9.79447 1.5627L1.56264 9.79453C1.54634 9.81079 1.53341 9.83011 1.52459 9.85137C1.51577 9.87264 1.51123 9.89544 1.51123 9.91846C1.51123 9.94148 1.51577 9.96427 1.52459 9.98554C1.53341 10.0068 1.54634 10.0261 1.56264 10.0424L7.95756 16.4373C7.99096 16.4707 8.0349 16.4883 8.08236 16.4883C8.12982 16.4883 8.17377 16.4707 8.20717 16.4373L16.439 8.20547C16.4742 8.16855 16.4917 8.11758 16.4882 8.06484ZM12.2871 6.80273C11.6665 6.80273 11.1621 6.29824 11.1621 5.67773C11.1621 5.05723 11.6665 4.55273 12.2871 4.55273C12.9076 4.55273 13.4121 5.05723 13.4121 5.67773C13.4121 6.29824 12.9076 6.80273 12.2871 6.80273Z" fill="#838383"/>
</svg>
